<?xml version="1.0" standalone="no"?><!DOCTYPE svg PUBLIC "-//W3C//DTD SVG 1.1//EN" "http://www.w3.org/Graphics/SVG/1.1/DTD/svg11.dtd"><svg t="1585367142215" class="icon" viewBox="0 0 1251 1024" version="1.1" xmlns="http://www.w3.org/2000/svg" p-id="2401" xmlns:xlink="http://www.w3.org/1999/xlink" width="244.3359375" height="200"><defs><style type="text/css"></style></defs><path d="M56.888889 0h1137.777778c34.133333 0 56.888889 22.755556 56.888889 56.888889v910.222222c0 34.133333-22.755556 56.888889-56.888889 56.888889H56.888889c-34.133333 0-56.888889-22.755556-56.888889-56.888889V56.888889c0-34.133333 22.755556-56.888889 56.888889-56.888889z m28.444444 56.888889c-17.066667 0-28.444444 11.377778-28.444444 28.444444v853.333334c0 17.066667 11.377778 28.444444 28.444444 28.444444h1080.888889c17.066667 0 28.444444-11.377778 28.444445-28.444444v-853.333334c0-17.066667-11.377778-28.444444-28.444445-28.444444h-1080.888889z" fill="#262626" p-id="2402"></path><path d="M876.088889 1024H56.888889c-34.133333 0-56.888889-22.755556-56.888889-56.888889v-227.555555l381.155556-324.266667 381.155555 403.911111 489.244445-227.555556V967.111111c0 34.133333-22.755556 56.888889-56.888889 56.888889h-318.577778z m-51.2-56.888889l-56.888889-62.577778-392.533333-409.6L56.888889 768V910.222222c0 34.133333 22.755556 56.888889 56.888889 56.888889h711.111111z m79.644444 0H1137.777778c34.133333 0 56.888889-22.755556 56.888889-56.888889v-227.555555l-392.533334 176.355555 102.4 108.088889zM881.777778 455.111111C802.133333 455.111111 739.555556 392.533333 739.555556 312.888889S802.133333 170.666667 881.777778 170.666667 1024 233.244444 1024 312.888889 961.422222 455.111111 881.777778 455.111111z m0-56.888889c45.511111 0 85.333333-39.822222 85.333333-85.333333S927.288889 227.555556 881.777778 227.555556 796.444444 267.377778 796.444444 312.888889 836.266667 398.222222 881.777778 398.222222z" fill="#262626" p-id="2403"></path></svg>