<?xml version="1.0" encoding="utf-8"?>
<!-- Generator: Adobe Illustrator 21.0.0, SVG Export Plug-In . SVG Version: 6.00 Build 0)  -->
<svg version="1.1" id="图层_1" xmlns="http://www.w3.org/2000/svg" xmlns:xlink="http://www.w3.org/1999/xlink" x="0px" y="0px"
	 viewBox="0 0 222 222" style="enable-background:new 0 0 222 222;" xml:space="preserve">
<style type="text/css">
	.st0{fill:#FFFFFF;}
	.st1{fill:url(#SVGID_1_);}
	.st2{enable-background:new    ;}
	.st3{fill:#FF941E;}
</style>
<path class="st0" d="M110.7,3.8L0.2,84.8l43,130.1l137-0.8L221,86.5l0.9-2.9L110.7,3.8z M110.8,64.1l56.8,40.8l-21.2,66.6l-70,0.4
	l-22-66.4L110.8,64.1z M13.9,85.3l92.4-67.8l0.2,42.5L52,100L13.9,85.3z M49.2,108.1l21.3,64.4l-22.7,29.2l-35.7-108L49.2,108.1z
	 M77.4,177.6l68-0.4l22.7,28.4L55,206.3L77.4,177.6z M152.3,172.1l20.6-64.7L210,92.6L175.5,201L152.3,172.1z M169.9,99.4L115.1,60
	L115,17.4l93,66.8L169.9,99.4z"/>
<linearGradient id="SVGID_1_" gradientUnits="userSpaceOnUse" x1="20" y1="-568.45" x2="201.2" y2="-568.45" gradientTransform="matrix(1 0 0 -1 0 -454)">
	<stop  offset="0" style="stop-color:#2BC8EB"/>
	<stop  offset="1" style="stop-color:#1588E0"/>
</linearGradient>
<path class="st1" d="M201.2,104.1V89.7h-11.7l-71.8-55.6V23.8h-14.4v10l-70,53H20v14.4h6.6l16.2,77.3h-1.2V193H56v-2.4l86.4,8.6v5.9
	h14.4v-14.4H155l37.6-86.6L201.2,104.1L201.2,104.1z M150.6,190.7h-8.1v4.5l-86.4-8.6v-7.9h-9l-16.2-77.3h3.6v-10l70-53h12
	l70.4,54.7v11.2h1.4L150.6,190.7z"/>
<g class="st2">
	<path class="st3" d="M166,161.3c0,0.9-0.7,1.6-2.1,2.1c-1.4,0-2.4,0.2-2.8,0.7c-0.5,0.9-0.2,1.6,0.7,2.1c0.9,0.5,1.4,1.2,1.4,2.1
		c-0.5,0.9-1.4,1.6-2.8,2.1c-9.4,2.4-15.5,3.5-18.3,3.5c-6.6-0.5-11.2-3.7-14.1-9.8c-2.8-7-5.6-15.7-8.4-26
		c-0.9,0.9-1.9,1.9-2.8,2.8l-0.7,0.7c-2.8,2.4-6.6,3.5-11.2,3.5c-4.2,0-12.4,0-24.6,0c-1.4,2.4-3.3,5.6-5.6,9.8
		c-3.3,6.1-5.2,9.4-5.6,9.8c-2.8,4.2-7,6.8-12.7,7.7c-0.5,0-0.9,0-1.4,0c-5.2,0-10.1-0.2-14.8-0.7c-1.9,0-3.1-0.7-3.5-2.1
		c0-1.9,0.9-3.5,2.8-4.9c6.6-4.2,10.8-8,12.7-11.2c0-0.5,0.5-1.2,1.4-2.1c1.4-2.3,2.6-4.4,3.5-6.3c-4.7,0-7.5,0-8.4,0
		c-3.3-0.5-4.2-2.6-2.8-6.3c2.8-5.6,5.2-9.4,7-11.2c2.3-3.3,5.4-4.9,9.1-4.9c1.4,0,4,0,7.7,0c3.3-5.6,8.2-14.5,14.8-26.7
		C92.9,80,98.1,70.2,99.9,66.4c0-0.5-0.5-0.7-1.4-0.7c-0.5-0.5-0.9-0.7-1.4-0.7c-3.8-1.9-4-4.2-0.7-7c5.6-2.8,11.7-4.7,18.3-5.6
		c8.9-0.9,14.8,2.8,17.6,11.2c2.8,9.4,6.1,21.3,9.8,35.9c0-1.4,0.5,0,1.4,4.2c5.2,19.2,9.8,34.5,14.1,45.7c0.9,2.4,3,5.2,6.3,8.4
		l0.7,0.7C166,159,166.5,159.9,166,161.3z M92.2,122.7c9.8,0,17.8,0,23.9,0c-0.5-1.4-1.2-4-2.1-7.7c-0.5-2.8-0.9-4.9-1.4-6.3
		c-0.5-1.9-1.2-4.9-2.1-9.1c-0.9-3.7-1.6-6.6-2.1-8.4C105.1,97.1,99.7,107.7,92.2,122.7z"/>
</g>
</svg>
