<?xml version="1.0" encoding="utf-8"?>
<!-- Generator: Adobe Illustrator 15.0.0, SVG Export Plug-In . SVG Version: 6.00 Build 0)  -->
<!DOCTYPE svg PUBLIC "-//W3C//DTD SVG 1.1//EN" "http://www.w3.org/Graphics/SVG/1.1/DTD/svg11.dtd">
<svg version="1.1" id="图层_1" xmlns="http://www.w3.org/2000/svg" xmlns:xlink="http://www.w3.org/1999/xlink" x="0px" y="0px"
	 width="338px" height="145px" viewBox="0 0 338 145" enable-background="new 0 0 338 145" xml:space="preserve">
<g>
	<path fill="#FFFFFF" d="M65.08,5.697L1.695,56.125l24.691,81.035l78.617-0.515l23.461-79.493l0.474-1.849L65.08,5.697z
		 M65.174,43.184l32.638,25.472l-12.204,41.494l-40.207,0.205L32.82,68.963L65.174,43.184z M9.546,56.434L62.62,14.221l0.095,26.498
		L31.401,65.677L9.546,56.434z M29.792,70.606l12.204,40.159l-12.961,18.18L8.507,61.672L29.792,70.606z M45.97,113.95l39.071-0.208
		l13.056,17.666l-64.994,0.412L45.97,113.95z M89.015,110.559l11.826-40.363l21.38-9.242l-19.866,67.579L89.015,110.559z
		 M99.137,65.266L67.634,40.719l-0.096-26.498l53.358,41.596L99.137,65.266z"/>
	
		<linearGradient id="SVGID_1_" gradientUnits="userSpaceOnUse" x1="432.1592" y1="1937.084" x2="601.957" y2="1937.084" gradientTransform="matrix(0.6123 0 0 0.6123 -251.5722 -1111.5513)">
		<stop  offset="0" style="stop-color:#2BC8EB"/>
		<stop  offset="1" style="stop-color:#1588E0"/>
	</linearGradient>
	<path fill="url(#SVGID_1_)" d="M117.017,68.142v-8.935h-6.716L69.147,24.492v-6.368h-8.325v6.266L20.71,57.358h-7.664v8.936h3.784
		l9.272,48.168H25.44v9.036h8.23v-1.539l49.572,5.341v3.699h8.23v-8.937h-1.04l21.57-53.921H117.017L117.017,68.142z
		 M87.973,122.063h-4.634v2.772l-49.573-5.341v-4.929h-5.109l-9.271-48.17h2.082v-6.264L61.58,27.265h6.905l40.396,34.098v6.985
		h0.758L87.973,122.063z"/>
	<g enable-background="new    ">
		<path fill="#FF941E" d="M96.866,103.779c0,0.516-0.378,1.029-1.23,1.337c-0.756,0-1.419,0.104-1.608,0.411
			c-0.284,0.515-0.094,1.025,0.378,1.335c0.473,0.308,0.757,0.719,0.757,1.334c-0.284,0.515-0.757,1.028-1.608,1.337
			c-5.393,1.54-8.893,2.155-10.501,2.155c-3.785-0.307-6.433-2.26-8.136-6.061c-1.609-4.313-3.217-9.755-4.825-16.225
			c-0.473,0.511-1.135,1.231-1.609,1.744l-0.378,0.41c-1.608,1.542-3.784,2.158-6.433,2.158c-2.365,0-7.095,0-14.096,0
			c-0.756,1.54-1.892,3.492-3.216,6.059c-1.893,3.8-3.028,5.854-3.217,6.062c-1.608,2.567-3.974,4.208-7.285,4.826
			c-0.283,0-0.472,0-0.756,0c-3.027,0-5.771-0.104-8.514-0.412c-1.135,0-1.798-0.409-1.987-1.334c0-1.235,0.473-2.156,1.608-3.08
			c3.784-2.568,6.245-5.033,7.285-6.985c0-0.308,0.284-0.717,0.757-1.334c0.756-1.438,1.514-2.773,1.987-3.905
			c-2.744,0-4.353,0-4.825,0c-1.893-0.307-2.365-1.642-1.609-3.901c1.609-3.492,3.028-5.854,3.974-6.984
			c1.325-2.054,3.122-3.081,5.204-3.081c0.757,0,2.271,0,4.446,0c1.893-3.492,4.73-9.038,8.514-16.638
			c4.825-9.86,7.853-16.125,8.893-18.385c0-0.307-0.283-0.411-0.756-0.411c-0.284-0.308-0.474-0.411-0.757-0.411
			c-2.176-1.231-2.271-2.568-0.379-4.313c3.217-1.746,6.717-2.979,10.501-3.492c5.109-0.513,8.515,1.746,10.124,6.983
			c1.607,5.854,3.5,13.249,5.581,22.39c0-0.821,0.283,0,0.757,2.567c3.027,11.914,5.582,21.467,8.137,28.451
			c0.472,1.54,1.702,3.286,3.594,5.237l0.379,0.411C96.866,102.343,97.151,102.958,96.866,103.779z M54.484,79.748
			c5.582,0,10.216,0,13.717,0c-0.283-0.822-0.663-2.466-1.229-4.827c-0.284-1.746-0.473-3.081-0.756-3.904
			c-0.284-1.232-0.663-3.081-1.23-5.648c-0.473-2.26-0.946-4.108-1.23-5.237C61.863,63.828,58.835,70.401,54.484,79.748z"/>
	</g>
</g>
<g>
	<path fill="#FFFFFF" d="M168.087,34.396c1.892,3.733,2.553,8.214,1.797,13.256c-0.284,4.853-2.176,8.96-5.771,12.882
		c-1.608,2.053-2.648,1.308-2.838-2.054c0-0.561,0-1.494,0-2.801c0.284-5.228,0-8.588-0.757-9.708
		c-1.04-3.176-2.932-4.105-6.149-2.055c-4.92,5.975-5.772,11.763-2.175,17.178c0.473,0.561,1.135,1.308,2.175,2.054
		c4.068,3.735,7.379,7.282,10.027,10.644c4.542,6.533,6.15,15.121,4.732,25.391c-1.608,9.71-4.825,16.618-9.65,19.793
		c-7.38,3.736-14.286,4.106-20.719,0.745c-3.311-1.498-4.73-5.603-3.974-12.14c1.892-6.53,4.163-11.573,6.716-14.749
		c0.852-0.931,1.136-0.558,0.758,1.496c-0.473,0.932-0.662,1.68-0.379,2.054c0,0.558,0.284,0.558,0.757,0
		c0.473-0.561,0.852-0.743,1.041-0.743c0.284,0.558,0.284,0.933,0,1.491c-0.474,3.735,0,5.785,1.419,6.347
		c3.784,0.561,6.716-0.188,8.893-2.054c1.608-2.802,1.797-5.784,0.378-9.337c-1.419-2.239-4.73-5.598-9.65-9.706
		c-6.527-5.601-9.176-13.07-8.23-21.845c2.175-15.124,7.663-25.206,16.46-30.434C159.95,26.181,165.061,27.859,168.087,34.396z"/>
	<path fill="#FFFFFF" d="M205.644,34.396c1.893,3.733,2.556,8.214,1.798,13.256c-0.282,4.853-2.175,8.96-5.771,12.882
		c-1.608,2.053-2.649,1.308-2.838-2.054c0-0.561,0-1.494,0-2.801c0.284-5.228,0-8.588-0.757-9.708
		c-1.041-3.176-2.935-4.105-6.149-2.055c-4.92,5.975-5.771,11.763-2.177,17.178c0.475,0.561,1.137,1.308,2.177,2.054
		c4.066,3.735,7.379,7.282,10.027,10.644c4.541,6.533,6.148,15.121,4.73,25.391c-1.607,9.71-4.825,16.618-9.649,19.793
		c-7.379,3.736-14.286,4.106-20.719,0.745c-3.312-1.498-4.729-5.603-3.973-12.14c1.893-6.53,4.161-11.573,6.716-14.749
		c0.853-0.931,1.137-0.558,0.757,1.496c-0.473,0.932-0.661,1.68-0.377,2.054c0,0.558,0.283,0.558,0.757,0
		c0.473-0.561,0.851-0.743,1.041-0.743c0.284,0.558,0.284,0.933,0,1.491c-0.474,3.735,0,5.785,1.418,6.347
		c3.785,0.561,6.718-0.188,8.893-2.054c1.609-2.802,1.798-5.784,0.379-9.337c-1.42-2.239-4.729-5.598-9.65-9.706
		c-6.528-5.601-9.176-13.07-8.23-21.845c2.177-15.124,7.664-25.206,16.461-30.434C197.698,26.181,202.617,27.859,205.644,34.396z"/>
	<path fill="#FFFFFF" d="M246.608,89.473c0.473-0.56,0.85-0.56,1.041,0c0,0.559-0.095,1.491-0.38,2.802
		c-4.067,11.39-9.648,19.042-16.839,23.336c-9.84,2.805-16.082-1.679-18.637-14.001c-1.609-13.067-0.663-27.634,3.216-43.128
		c4.919-17.177,11.827-27.446,20.34-31.18c8.42-0.935,12.583,5.601,12.866,19.791c0,14.003-3.595,26.7-10.691,37.525
		c-3.31,5.229-6.716,7.097-10.027,5.604c0-0.561-0.094-0.749-0.377-0.749c0.852,7.099,3.311,8.965,7.095,5.603
		c2.459-1.679,5.487-5.229,9.271-9.71c0.852-0.93,1.514-1.679,1.799-2.049c0.756-0.937,1.133-1.313,1.418-0.753
		c0.284,0,0.284,0.753,0,2.054C245.945,88.353,245.757,90.031,246.608,89.473z M226.456,79.58c0,1.491,0,2.8,0,4.292
		c1.893-1.68,3.975-5.227,6.149-9.706c2.839-8.03,4.541-16.246,4.919-24.647c0-3.175-0.472-5.602-1.419-6.349
		c-0.756-0.56-1.796,0.747-3.216,3.549C230.146,54.561,227.972,65.576,226.456,79.58z"/>
	<path fill="#FFFFFF" d="M284.165,34.396c1.893,3.733,2.556,8.214,1.799,13.256c-0.284,4.853-2.176,8.96-5.772,12.882
		c-1.607,2.053-2.648,1.308-2.838-2.054c0-0.561,0-1.494,0-2.801c0.284-5.228,0-8.588-0.757-9.708
		c-1.041-3.176-2.933-4.105-6.149-2.055c-4.919,5.975-5.771,11.763-2.177,17.178c0.475,0.561,1.137,1.308,2.177,2.054
		c4.069,3.735,7.381,7.282,10.029,10.644c4.54,6.533,6.148,15.121,4.729,25.391c-1.608,9.71-4.825,16.618-9.65,19.793
		c-7.378,3.736-14.286,4.106-20.717,0.745c-3.313-1.498-4.73-5.603-3.973-12.14c1.892-6.53,4.161-11.573,6.717-14.749
		c0.852-0.931,1.134-0.558,0.756,1.496c-0.474,0.932-0.663,1.68-0.379,2.054c0,0.558,0.284,0.558,0.757,0
		c0.473-0.561,0.852-0.743,1.041-0.743c0.284,0.558,0.284,0.933,0,1.491c-0.474,3.735,0,5.785,1.419,6.347
		c3.784,0.561,6.717-0.188,8.894-2.054c1.607-2.802,1.796-5.784,0.377-9.337c-1.418-2.239-4.729-5.598-9.648-9.706
		c-6.528-5.601-9.177-13.07-8.231-21.845c2.175-15.124,7.663-25.206,16.462-30.434C275.936,26.181,281.044,27.859,284.165,34.396z"
		/>
	<path fill="#FFFFFF" d="M321.817,34.396c1.894,3.733,2.554,8.214,1.799,13.256c-0.284,4.853-2.177,8.96-5.771,12.882
		c-1.609,2.053-2.65,1.308-2.839-2.054c0-0.561,0-1.494,0-2.801c0.284-5.228,0-8.588-0.756-9.708
		c-1.041-3.176-2.933-4.105-6.15-2.055c-4.919,5.975-5.771,11.763-2.174,17.178c0.473,0.561,1.134,1.308,2.174,2.054
		c4.068,3.735,7.379,7.282,10.028,10.644c4.541,6.533,6.149,15.121,4.731,25.391c-1.608,9.71-4.825,16.618-9.65,19.793
		c-7.38,3.736-14.284,4.106-20.719,0.745c-3.31-1.498-4.73-5.603-3.973-12.14c1.891-6.53,4.163-11.573,6.716-14.749
		c0.853-0.931,1.136-0.558,0.757,1.496c-0.474,0.932-0.662,1.68-0.377,2.054c0,0.558,0.284,0.558,0.756,0
		c0.473-0.561,0.852-0.743,1.04-0.743c0.283,0.558,0.283,0.933,0,1.491c-0.472,3.735,0,5.785,1.419,6.347
		c3.785,0.561,6.718-0.188,8.894-2.054c1.608-2.802,1.798-5.784,0.378-9.337c-1.418-2.239-4.729-5.598-9.649-9.706
		c-6.526-5.601-9.177-13.07-8.229-21.845c2.175-15.124,7.661-25.206,16.46-30.434C313.683,26.181,318.603,27.859,321.817,34.396z"/>
</g>
</svg>
