<?xml version="1.0" encoding="utf-8"?>
<!-- Generator: Adobe Illustrator 21.0.0, SVG Export Plug-In . SVG Version: 6.00 Build 0)  -->
<svg version="1.1" id="图层_1" xmlns="http://www.w3.org/2000/svg" xmlns:xlink="http://www.w3.org/1999/xlink" x="0px" y="0px"
	 viewBox="0 0 552 222" style="enable-background:new 0 0 552 222;" xml:space="preserve">
<style type="text/css">
	.st0{fill:#FFFFFF;}
	.st1{fill:url(#SVGID_1_);}
	.st2{enable-background:new    ;}
	.st3{fill:#FF941E;}
</style>
<g>
	<path class="st0" d="M67.5,44l-67,49.1L26.6,172l83.1-0.5l24.8-77.4l0.5-1.8L67.5,44z M67.6,80.5l34.5,24.8l-12.9,40.4l-42.5,0.2
		l-13.3-40.3L67.6,80.5z M8.8,93.4l56.1-41.1L65,78.1l-33.1,24.3L8.8,93.4z M30.2,107.2l12.9,39.1L29.4,164L7.7,98.5L30.2,107.2z
		 M47.3,149.4l41.3-0.2l13.8,17.2l-68.7,0.4L47.3,149.4z M92.8,146.1l12.5-39.3l22.6-9l-21,65.8L92.8,146.1z M103.5,102L70.2,78.1
		l-0.1-25.8l56.4,40.5L103.5,102z"/>
	
		<linearGradient id="SVGID_1_" gradientUnits="userSpaceOnUse" x1="12.5122" y1="-1421.0896" x2="122.4418" y2="-1421.0896" gradientTransform="matrix(1 0 0 -1 0 -1310)">
		<stop  offset="0" style="stop-color:#2BC8EB"/>
		<stop  offset="1" style="stop-color:#1588E0"/>
	</linearGradient>
	<path class="st1" d="M122.4,104.8v-8.7h-7.1L71.8,62.3v-6.2H63v6.1L20.6,94.3h-8.1v8.7h4l9.8,46.9h-0.7v8.8h8.7v-1.5l52.4,5.2v3.6
		h8.7v-8.7h-1.1l22.8-52.5L122.4,104.8L122.4,104.8z M91.7,157.3h-4.9v2.7l-52.4-5.2v-4.8H29l-9.8-46.9h2.2v-6.1L63.8,65h7.3
		l42.7,33.2v6.8h0.8L91.7,157.3z"/>
	<g class="st2">
		<path class="st3" d="M101.1,139.5c0,0.5-0.4,1-1.3,1.3c-0.8,0-1.5,0.1-1.7,0.4c-0.3,0.5-0.1,1,0.4,1.3c0.5,0.3,0.8,0.7,0.8,1.3
			c-0.3,0.5-0.8,1-1.7,1.3c-5.7,1.5-9.4,2.1-11.1,2.1c-4-0.3-6.8-2.2-8.6-5.9c-1.7-4.2-3.4-9.5-5.1-15.8c-0.5,0.5-1.2,1.2-1.7,1.7
			l-0.4,0.4c-1.7,1.5-4,2.1-6.8,2.1c-2.5,0-7.5,0-14.9,0c-0.8,1.5-2,3.4-3.4,5.9c-2,3.7-3.2,5.7-3.4,5.9c-1.7,2.5-4.2,4.1-7.7,4.7
			c-0.3,0-0.5,0-0.8,0c-3.2,0-6.1-0.1-9-0.4c-1.2,0-1.9-0.4-2.1-1.3c0-1.2,0.5-2.1,1.7-3c4-2.5,6.6-4.9,7.7-6.8
			c0-0.3,0.3-0.7,0.8-1.3c0.8-1.4,1.6-2.7,2.1-3.8c-2.9,0-4.6,0-5.1,0c-2-0.3-2.5-1.6-1.7-3.8c1.7-3.4,3.2-5.7,4.2-6.8
			c1.4-2,3.3-3,5.5-3c0.8,0,2.4,0,4.7,0c2-3.4,5-8.8,9-16.2c5.1-9.6,8.3-15.7,9.4-17.9c0-0.3-0.3-0.4-0.8-0.4
			c-0.3-0.3-0.5-0.4-0.8-0.4c-2.3-1.2-2.4-2.5-0.4-4.2c3.4-1.7,7.1-2.9,11.1-3.4c5.4-0.5,9,1.7,10.7,6.8c1.7,5.7,3.7,12.9,5.9,21.8
			c0-0.8,0.3,0,0.8,2.5c3.2,11.6,5.9,20.9,8.6,27.7c0.5,1.5,1.8,3.2,3.8,5.1l0.4,0.4C101.1,138.1,101.4,138.7,101.1,139.5z
			 M56.3,116.1c5.9,0,10.8,0,14.5,0c-0.3-0.8-0.7-2.4-1.3-4.7c-0.3-1.7-0.5-3-0.8-3.8c-0.3-1.2-0.7-3-1.3-5.5c-0.5-2.2-1-4-1.3-5.1
			C64.1,100.6,60.9,107,56.3,116.1z"/>
	</g>
</g>
<g>
	<path class="st0" d="M183.3,91c2,2,2.7,4.4,1.9,7.1c-0.3,2.6-2.3,4.8-6.1,6.9c-1.7,1.1-2.8,0.7-3-1.1c0-0.3,0-0.8,0-1.5
		c0.3-2.8,0-4.6-0.8-5.2c-1.1-1.7-3.1-2.2-6.5-1.1c-5.2,3.2-6.1,6.3-2.3,9.2c0.5,0.3,1.2,0.7,2.3,1.1c4.3,2,7.8,3.9,10.6,5.7
		c4.8,3.5,6.5,8.1,5,13.6c-1.7,5.2-5.1,8.9-10.2,10.6c-7.8,2-15.1,2.2-21.9,0.4c-3.5-0.8-5-3-4.2-6.5c2-3.5,4.4-6.2,7.1-7.9
		c0.9-0.5,1.2-0.3,0.8,0.8c-0.5,0.5-0.7,0.9-0.4,1.1c0,0.3,0.3,0.3,0.8,0c0.5-0.3,0.9-0.4,1.1-0.4c0.3,0.3,0.3,0.5,0,0.8
		c-0.5,2,0,3.1,1.5,3.4c4,0.3,7.1-0.1,9.4-1.1c1.7-1.5,1.9-3.1,0.4-5c-1.5-1.2-5-3-10.2-5.2c-6.9-3-9.7-7-8.7-11.7
		c2.3-8.1,8.1-13.5,17.4-16.3C174.7,86.6,180.1,87.5,183.3,91z"/>
	<path class="st0" d="M223,91c2,2,2.7,4.4,1.9,7.1c-0.3,2.6-2.3,4.8-6.1,6.9c-1.7,1.1-2.8,0.7-3-1.1c0-0.3,0-0.8,0-1.5
		c0.3-2.8,0-4.6-0.8-5.2c-1.1-1.7-3.1-2.2-6.5-1.1c-5.2,3.2-6.1,6.3-2.3,9.2c0.5,0.3,1.2,0.7,2.3,1.1c4.3,2,7.8,3.9,10.6,5.7
		c4.8,3.5,6.5,8.1,5,13.6c-1.7,5.2-5.1,8.9-10.2,10.6c-7.8,2-15.1,2.2-21.9,0.4c-3.5-0.8-5-3-4.2-6.5c2-3.5,4.4-6.2,7.1-7.9
		c0.9-0.5,1.2-0.3,0.8,0.8c-0.5,0.5-0.7,0.9-0.4,1.1c0,0.3,0.3,0.3,0.8,0s0.9-0.4,1.1-0.4c0.3,0.3,0.3,0.5,0,0.8
		c-0.5,2,0,3.1,1.5,3.4c4,0.3,7.1-0.1,9.4-1.1c1.7-1.5,1.9-3.1,0.4-5c-1.5-1.2-5-3-10.2-5.2c-6.9-3-9.7-7-8.7-11.7
		c2.3-8.1,8.1-13.5,17.4-16.3C214.6,86.6,219.8,87.5,223,91z"/>
	<path class="st0" d="M266.3,120.5c0.5-0.3,0.9-0.3,1.1,0c0,0.3-0.1,0.8-0.4,1.5c-4.3,6.1-10.2,10.2-17.8,12.5
		c-10.4,1.5-17-0.9-19.7-7.5c-1.7-7-0.7-14.8,3.4-23.1c5.2-9.2,12.5-14.7,21.5-16.7c8.9-0.5,13.3,3,13.6,10.6
		c0,7.5-3.8,14.3-11.3,20.1c-3.5,2.8-7.1,3.8-10.6,3c0-0.3-0.1-0.4-0.4-0.4c0.9,3.8,3.5,4.8,7.5,3c2.6-0.9,5.8-2.8,9.8-5.2
		c0.9-0.5,1.6-0.9,1.9-1.1c0.8-0.5,1.2-0.7,1.5-0.4c0.3,0,0.3,0.4,0,1.1C265.6,119.9,265.4,120.8,266.3,120.5z M245,115.2
		c0,0.8,0,1.5,0,2.3c2-0.9,4.2-2.8,6.5-5.2c3-4.3,4.8-8.7,5.2-13.2c0-1.7-0.5-3-1.5-3.4c-0.8-0.3-1.9,0.4-3.4,1.9
		C248.9,101.8,246.6,107.7,245,115.2z"/>
	<path class="st0" d="M306,91c2,2,2.7,4.4,1.9,7.1c-0.3,2.6-2.3,4.8-6.1,6.9c-1.7,1.1-2.8,0.7-3-1.1c0-0.3,0-0.8,0-1.5
		c0.3-2.8,0-4.6-0.8-5.2c-1.1-1.7-3.1-2.2-6.5-1.1c-5.2,3.2-6.1,6.3-2.3,9.2c0.5,0.3,1.2,0.7,2.3,1.1c4.3,2,7.8,3.9,10.6,5.7
		c4.8,3.5,6.5,8.1,5,13.6c-1.7,5.2-5.1,8.9-10.2,10.6c-7.8,2-15.1,2.2-21.9,0.4c-3.5-0.8-5-3-4.2-6.5c2-3.5,4.4-6.2,7.1-7.9
		c0.9-0.5,1.2-0.3,0.8,0.8c-0.5,0.5-0.7,0.9-0.4,1.1c0,0.3,0.3,0.3,0.8,0s0.9-0.4,1.1-0.4c0.3,0.3,0.3,0.5,0,0.8
		c-0.5,2,0,3.1,1.5,3.4c4,0.3,7.1-0.1,9.4-1.1c1.7-1.5,1.9-3.1,0.4-5c-1.5-1.2-5-3-10.2-5.2c-6.9-3-9.7-7-8.7-11.7
		c2.3-8.1,8.1-13.5,17.4-16.3C297.3,86.6,302.7,87.5,306,91z"/>
	<path class="st0" d="M345.8,91c2,2,2.7,4.4,1.9,7.1c-0.3,2.6-2.3,4.8-6.1,6.9c-1.7,1.1-2.8,0.7-3-1.1c0-0.3,0-0.8,0-1.5
		c0.3-2.8,0-4.6-0.8-5.2c-1.1-1.7-3.1-2.2-6.5-1.1c-5.2,3.2-6.1,6.3-2.3,9.2c0.5,0.3,1.2,0.7,2.3,1.1c4.3,2,7.8,3.9,10.6,5.7
		c4.8,3.5,6.5,8.1,5,13.6c-1.7,5.2-5.1,8.9-10.2,10.6c-7.8,2-15.1,2.2-21.9,0.4c-3.5-0.8-5-3-4.2-6.5c2-3.5,4.4-6.2,7.1-7.9
		c0.9-0.5,1.2-0.3,0.8,0.8c-0.5,0.5-0.7,0.9-0.4,1.1c0,0.3,0.3,0.3,0.8,0s0.9-0.4,1.1-0.4c0.3,0.3,0.3,0.5,0,0.8
		c-0.5,2,0,3.1,1.5,3.4c4,0.3,7.1-0.1,9.4-1.1c1.7-1.5,1.9-3.1,0.4-5c-1.5-1.2-5-3-10.2-5.2c-6.9-3-9.7-7-8.7-11.7
		c2.3-8.1,8.1-13.5,17.4-16.3C337.2,86.6,342.4,87.5,345.8,91z"/>
	<path class="st0" d="M355.6,96.7c-1.2-0.3-1.1-1.2,0.4-3c0.3,0,0.8-0.4,1.5-1.1c3.5-2.8,6.1-4.4,7.5-5c5.2-0.8,7.7,1.3,7.1,6.5
		c-0.3,2-1.3,7.4-3.4,16.3c5.8-8.1,11.2-14.8,16.3-20.1c2.8-2.6,5.1-3.5,7.1-3c2.3,1.1,3.2,3.1,3,6.5c-0.5,2.8-1.5,7.9-3,15.5
		c7-9.8,12.1-16.3,15.1-19.2c5.8-3.5,9.3-2.2,10.6,4.2c0,1.1,0,3,0,5.7c-0.5,9.8-0.5,17.2,0,22.3c0.3,3,0.9,5.5,1.9,7.5
		c0.3,0.3,0.4,0.5,0.4,0.8c0.5,2-0.3,3-2.3,2.7c-1.1-0.5-1.6-0.1-1.9,1.1c0.3,1.2-1.2,1.6-4.6,1.1c-5.8-0.9-8.9-4.3-9.2-9.8
		c-0.5-4.8-0.8-9.8-0.8-15.1c-5.5,7.5-10.9,14.3-15.9,20.1c-2.8,3-5.4,4-7.9,3c-2.6-1.5-3.4-4.3-2.7-8.3c0.5-3.5,1.7-8.6,3.8-15.1
		c-7.5,10.4-12.4,17-14.4,19.7c-3,3.5-6.3,4.7-9.8,3.4c-3.2-0.9-4.7-4-4.2-9.2c0.5-3.8,2-10.4,4.6-19.7c0.9-3,1.5-4.8,1.5-5.2
		c0.3-0.8,0.4-1.2,0.4-1.5C357.1,97.2,356.6,96.9,355.6,96.7z"/>
	<path class="st0" d="M460.9,120.5c0.5-0.3,0.9-0.3,1.1,0c0,0.3-0.1,0.8-0.4,1.5c-4.3,6.1-10.2,10.2-17.8,12.5
		c-10.4,1.5-17-0.9-19.7-7.5c-1.7-7-0.7-14.8,3.4-23.1c5.2-9.2,12.5-14.7,21.5-16.7c8.9-0.5,13.3,3,13.6,10.6
		c0,7.5-3.8,14.3-11.3,20.1c-3.5,2.8-7.1,3.8-10.6,3c0-0.3-0.1-0.4-0.4-0.4c0.9,3.8,3.5,4.8,7.5,3c2.6-0.9,5.8-2.8,9.8-5.2
		c0.9-0.5,1.6-0.9,1.9-1.1c0.8-0.5,1.2-0.7,1.5-0.4c0.3,0,0.3,0.4,0,1.1C460.2,119.9,460.1,120.8,460.9,120.5z M439.6,115.2
		c0,0.8,0,1.5,0,2.3c2-0.9,4.2-2.8,6.5-5.2c3-4.3,4.8-8.7,5.2-13.2c0-1.7-0.5-3-1.5-3.4c-0.8-0.3-1.9,0.4-3.4,1.9
		C443.4,101.8,441.1,107.7,439.6,115.2z"/>
	<path class="st0" d="M471.8,97.9c-1.5-0.8-1.2-2,0.8-3.8c0.5-0.3,1.2-0.8,2.3-1.5c2.6-2,4.4-3.2,5.7-3.8c5.5-2,8.3-0.4,8.3,5
		c-0.5,4.3-1.3,9.2-2.7,14.8c5.2-8.1,9.6-13.6,12.9-16.7c6.9-3.5,10.8-2.2,11.7,4.2c-0.5,7.3-0.8,15.1-0.8,23.1c0,4.3,0.9,7.5,3,9.8
		c0.5,0.8,0.5,1.5,0,2.3c-0.8,0.5-1.5,0.5-2.3,0c-0.8-0.3-1.2-0.4-1.5-0.4c-0.3,0.3-0.4,0.8-0.4,1.5c0,1.7-1.5,2.2-4.6,1.1
		c-5.5-0.9-8.6-4.4-9.2-10.2c-0.5-4.3-0.5-9,0-14c-6.1,7.3-11.6,14.4-16.7,21.3c-2.6,3-5.2,3.9-8.3,2.7c-3.2-1.7-4.7-4.7-4.2-8.7
		c1.2-7.3,3.2-15.1,6.1-23.4C473.1,99.1,473,98.1,471.8,97.9z"/>
	<path class="st0" d="M547.8,89.5c0.8,0,1.2,0.3,1.5,0.8c0,0.8-0.4,1.3-1.1,1.9c-1.2,0.8-1.9,1.6-1.9,2.7c-0.5,4.3-2.6,6.3-6.1,6.1
		c-1.7,0.3-3.2,0.4-4.6,0.4c-1.5,6.6-3,12.8-4.2,18.6c-0.5,3,0.8,4.2,3.8,3.4c3-0.9,5.9-2.2,8.7-3.4c0.8-0.5,1.3-0.5,1.9,0
		c0.5,0.8,0.4,1.3-0.4,1.9c-0.5,0.5-0.8,1.1-0.8,1.5c0,0.3,0.3,0.3,0.8,0c0.5-0.3,0.8-0.3,0.8,0c0.3,0.5,0.1,1.1-0.4,1.5
		c-4.3,5.2-9.8,8.9-16.7,10.6c-9.2,0.9-13.1-3.2-11.7-12.9c1.2-7.5,2.8-14.7,4.6-21.1c-1.1-0.3-2.3-0.4-3.8-0.4
		c-3-0.3-3.6-2.3-1.9-6.1c0.3-0.3,0.4-0.7,0.4-1.1c1.2-2.8,3.2-4.2,6.1-4.2c0.5,0,1.1,0,1.9,0c0.8-2,1.3-3.9,1.9-5.7
		c0.5-1.5,0.4-2.4-0.4-2.7c-1.5-0.9-1.2-2.6,0.8-4.6c3.8-2.8,7.9-4.6,12.5-5.2c3.2,0,4.4,1.9,3.4,5.7c-0.8,1.7-1.6,4.4-2.7,7.9
		c-0.8,2-1.2,3.5-1.5,4.6C543.8,89.5,546.9,89.5,547.8,89.5z"/>
</g>
</svg>
