<?xml version="1.0" encoding="utf-8"?>
<!-- Generator: Adobe Illustrator 21.0.0, SVG Export Plug-In . SVG Version: 6.00 Build 0)  -->
<svg version="1.1" id="图层_1" xmlns="http://www.w3.org/2000/svg" xmlns:xlink="http://www.w3.org/1999/xlink" x="0px" y="0px"
	 viewBox="0 0 222 222" style="enable-background:new 0 0 222 222;" xml:space="preserve">
<style type="text/css">
	.st0{display:none;fill:#F0776F;}
	.st1{display:none;fill:none;stroke:#E1E1E1;stroke-width:0.75;stroke-miterlimit:10;}
	.st2{display:none;fill:url(#SVGID_1_);}
	.st3{fill:#FFFFFF;}
	.st4{fill:url(#SVGID_2_);}
	.st5{fill:#FF941E;}
</style>
<path class="st0" d="M152.5,145.9l-30.4-55l-0.1-0.1c-2.2-3.7-6.2-6.1-10.5-6.1s-8.4,2.4-10.5,6.1l-30.4,55.1
	c-2.3,4.2-0.8,9.3,3.4,11.6c4.2,2.3,9.3,0.8,11.6-3.4l5.9-10.7h40.2l5.9,10.7c1.6,2.9,4.4,4.4,7.5,4.4c1.4,0,2.9-0.4,4.1-1.1
	C153.2,155.2,154.8,150,152.5,145.9z M100.8,126.4l10.7-19.3l10.7,19.3C122.2,126.4,100.8,126.4,100.8,126.4z"/>
<polygon class="st1" points="183.6,220.3 40.8,221.1 -4,85.5 111.1,1 227,84.3 "/>
<polygon class="st1" points="151.3,180 72.5,180.4 47.8,105.6 111.3,59 175.2,104.9 "/>
<line class="st1" x1="111.3" y1="59" x2="111.1" y2="1"/>
<line class="st1" x1="175.2" y1="104.9" x2="227" y2="84.3"/>
<line class="st1" x1="151.3" y1="180" x2="183.6" y2="220.3"/>
<line class="st1" x1="72.5" y1="180.4" x2="40.8" y2="221.1"/>
<line class="st1" x1="47.8" y1="105.6" x2="-4" y2="85.5"/>
<linearGradient id="SVGID_1_" gradientUnits="userSpaceOnUse" x1="16.8" y1="-750.05" x2="207.9" y2="-750.05" gradientTransform="matrix(1 0 0 -1 0 -632)">
	<stop  offset="0" style="stop-color:#2BC8EB"/>
	<stop  offset="1" style="stop-color:#1588E0"/>
</linearGradient>
<path class="st2" d="M207.9,107.1V91.9h-12.4l-75.7-58.7V22.4h-15.2V33L30.8,88.9h-14v15.2h7l17.1,81.6h-1.3v15.2h15.2v-2.5
	l91.2,9.1v6.2h15.2v-15.2h-1.9l39.7-91.4H207.9z M154.5,198.5H146v4.7l-91.2-9.1v-8.3h-9.5l-17.1-81.6H32V93.5l73.8-55.9h12.7
	l74.3,57.7v11.8h1.5L154.5,198.5z"/>
<path class="st3" d="M110.7,5.4L0.2,86.5l43,130.1l137-0.8l40.8-127.6l0.9-2.9L110.7,5.4z M110.8,65.7l56.8,40.8l-21.2,66.6l-70,0.4
	l-22-66.4L110.8,65.7z M13.9,87l92.4-67.8l0.2,42.5l-54.5,40L13.9,87z M49.2,109.8l21.3,64.4l-22.7,29.2l-35.7-108L49.2,109.8z
	 M77.4,179.3l68-0.4l22.7,28.4L55,207.9L77.4,179.3z M152.3,173.7l20.6-64.7L210,94.3l-34.6,108.4L152.3,173.7z M169.9,101
	l-54.8-39.4L115,19l93,66.8L169.9,101z"/>
<linearGradient id="SVGID_2_" gradientUnits="userSpaceOnUse" x1="19.9807" y1="794.0786" x2="201.1807" y2="794.0786" gradientTransform="matrix(1 0 0 1 0 -678)">
	<stop  offset="0" style="stop-color:#2BC8EB"/>
	<stop  offset="1" style="stop-color:#1588E0"/>
</linearGradient>
<path class="st4" d="M201.2,105.7V91.3h-11.7l-71.8-55.6V25.4h-14.4v10l-70,53H20v14.4h6.6l16.2,77.3h-1.2v14.5H56v-2.4l86.4,8.6
	v5.9h14.4v-14.4H155l37.6-86.6H201.2z M150.6,192.3h-8.1v4.5l-86.4-8.6v-7.9h-9L30.9,103h3.6V93l70-53h12l70.4,54.7v11.2h1.4
	L150.6,192.3z"/>
<g>
	<path class="st5" d="M166,163c0,0.9-0.7,1.6-2.1,2.1c-1.4,0-2.4,0.2-2.8,0.7c-0.5,0.9-0.2,1.6,0.7,2.1c0.9,0.5,1.4,1.2,1.4,2.1
		c-0.5,0.9-1.4,1.6-2.8,2.1c-9.4,2.4-15.5,3.5-18.3,3.5c-6.6-0.5-11.2-3.7-14.1-9.8c-2.8-7-5.6-15.7-8.4-26
		c-0.9,0.9-1.9,1.9-2.8,2.8l-0.7,0.7c-2.8,2.4-6.6,3.5-11.2,3.5c-4.2,0-12.4,0-24.6,0c-1.4,2.4-3.3,5.6-5.6,9.8
		c-3.3,6.1-5.2,9.4-5.6,9.8c-2.8,4.2-7,6.8-12.7,7.7c-0.5,0-0.9,0-1.4,0c-5.2,0-10.1-0.2-14.8-0.7c-1.9,0-3.1-0.7-3.5-2.1
		c0-1.9,0.9-3.5,2.8-4.9c6.6-4.2,10.8-8,12.7-11.2c0-0.5,0.5-1.2,1.4-2.1c1.4-2.3,2.6-4.4,3.5-6.3c-4.7,0-7.5,0-8.4,0
		c-3.3-0.5-4.2-2.6-2.8-6.3c2.8-5.6,5.2-9.4,7-11.2c2.3-3.3,5.4-4.9,9.1-4.9c1.4,0,4,0,7.7,0c3.3-5.6,8.2-14.5,14.8-26.7
		C92.9,81.6,98.1,71.8,99.9,68c0-0.5-0.5-0.7-1.4-0.7c-0.5-0.5-0.9-0.7-1.4-0.7c-3.8-1.9-4-4.2-0.7-7c5.6-2.8,11.7-4.7,18.3-5.6
		c8.9-0.9,14.8,2.8,17.6,11.2c2.8,9.4,6.1,21.3,9.8,35.9c0-1.4,0.5,0,1.4,4.2c5.2,19.2,9.8,34.5,14.1,45.7c0.9,2.4,3,5.2,6.3,8.4
		l0.7,0.7C166,160.6,166.5,161.6,166,163z M92.2,124.3c9.8,0,17.8,0,23.9,0c-0.5-1.4-1.2-4-2.1-7.7c-0.5-2.8-0.9-4.9-1.4-6.3
		c-0.5-1.9-1.2-4.9-2.1-9.1c-0.9-3.7-1.6-6.6-2.1-8.4C105.1,98.7,99.7,109.3,92.2,124.3z"/>
</g>
</svg>
