<?xml version="1.0" encoding="utf-8"?>
<!-- Generator: Adobe Illustrator 21.0.0, SVG Export Plug-In . SVG Version: 6.00 Build 0)  -->
<svg version="1.1" id="图层_1" xmlns="http://www.w3.org/2000/svg" xmlns:xlink="http://www.w3.org/1999/xlink" x="0px" y="0px"
	 viewBox="0 0 400 400" style="enable-background:new 0 0 400 400;" xml:space="preserve">
<style type="text/css">
	.st0{fill:none;stroke:#FFFFFF;stroke-width:6;stroke-miterlimit:10;}
	.st1{fill:url(#SVGID_1_);}
	.st2{enable-background:new    ;}
	.st3{fill:#FF941E;}
</style>
<polygon class="st0" points="203,63 92.2,144.3 135.3,274.8 272.7,274 314.2,144.1 314.5,143.1 "/>
<polygon class="st0" points="263.9,161.6 204.6,119 204.4,67.5 309.9,143.3 "/>
<polygon class="st0" points="201.7,119 142.7,162.3 96.7,144.5 201.5,67.6 "/>
<polygon class="st0" points="141.8,165 164.8,234.5 136.9,270.4 96.2,147.2 "/>
<polygon class="st0" points="167.1,236.2 240.4,235.8 268.7,271.2 139.2,271.9 "/>
<polygon class="st0" points="242.7,234.1 264.9,164.3 310.6,146.1 271.2,269.6 "/>
<linearGradient id="SVGID_1_" gradientUnits="userSpaceOnUse" x1="112.5" y1="-449.45" x2="293.7" y2="-449.45" gradientTransform="matrix(1 0 0 -1 0 -276)">
	<stop  offset="0" style="stop-color:#2BC8EB"/>
	<stop  offset="1" style="stop-color:#1588E0"/>
</linearGradient>
<path class="st1" d="M293.7,163.1v-14.4H282l-71.8-55.6V82.8h-14.4v10l-70,53h-13.3v14.4h6.6l16.2,77.3h-1.2V252h14.4v-2.4l86.4,8.6
	v5.9h14.4v-14.4h-1.8l37.6-86.6H293.7z M243.1,249.7H235v4.5l-86.4-8.6v-7.9h-9l-16.2-77.3h3.6v-10l70-53h12l70.4,54.7v11.2h1.4
	L243.1,249.7z"/>
<g class="st2">
	<path class="st3" d="M258.5,220.3c0,0.9-0.7,1.6-2.1,2.1c-1.4,0-2.4,0.2-2.8,0.7c-0.5,0.9-0.2,1.6,0.7,2.1c0.9,0.5,1.4,1.2,1.4,2.1
		c-0.5,0.9-1.4,1.6-2.8,2.1c-9.4,2.4-15.5,3.5-18.3,3.5c-6.6-0.5-11.2-3.7-14.1-9.8c-2.8-7-5.6-15.7-8.4-26
		c-0.9,0.9-1.9,1.9-2.8,2.8l-0.7,0.7c-2.8,2.4-6.6,3.5-11.3,3.5c-4.2,0-12.4,0-24.6,0c-1.4,2.4-3.3,5.6-5.6,9.8
		c-3.3,6.1-5.2,9.4-5.6,9.8c-2.8,4.2-7,6.8-12.7,7.7c-0.5,0-0.9,0-1.4,0c-5.2,0-10.1-0.2-14.8-0.7c-1.9,0-3.1-0.7-3.5-2.1
		c0-1.9,0.9-3.5,2.8-4.9c6.6-4.2,10.8-8,12.7-11.2c0-0.5,0.5-1.2,1.4-2.1c1.4-2.3,2.6-4.4,3.5-6.3c-4.7,0-7.5,0-8.4,0
		c-3.3-0.5-4.2-2.6-2.8-6.3c2.8-5.6,5.2-9.4,7-11.2c2.3-3.3,5.4-4.9,9.1-4.9c1.4,0,4,0,7.7,0c3.3-5.6,8.2-14.5,14.8-26.7
		c8.4-15.9,13.6-25.8,15.5-29.5c0-0.5-0.5-0.7-1.4-0.7c-0.5-0.5-0.9-0.7-1.4-0.7c-3.8-1.9-4-4.2-0.7-7c5.6-2.8,11.7-4.7,18.3-5.6
		c8.9-0.9,14.8,2.8,17.6,11.2c2.8,9.4,6.1,21.3,9.8,35.9c0-1.4,0.5,0,1.4,4.2c5.2,19.2,9.8,34.5,14.1,45.7c0.9,2.4,3,5.2,6.3,8.4
		l0.7,0.7C258.5,218,259,218.9,258.5,220.3z M184.7,181.7c9.8,0,17.8,0,23.9,0c-0.5-1.4-1.2-4-2.1-7.7c-0.5-2.8-0.9-4.9-1.4-6.3
		c-0.5-1.9-1.2-4.9-2.1-9.1c-0.9-3.7-1.6-6.6-2.1-8.4C197.6,156.1,192.2,166.7,184.7,181.7z"/>
</g>
</svg>
