<?xml version="1.0" encoding="utf-8"?>
<!-- Generator: Adobe Illustrator 21.0.0, SVG Export Plug-In . SVG Version: 6.00 Build 0)  -->
<svg version="1.1" id="图层_1" xmlns="http://www.w3.org/2000/svg" xmlns:xlink="http://www.w3.org/1999/xlink" x="0px" y="0px"
	 viewBox="0 0 552 222" style="enable-background:new 0 0 552 222;" xml:space="preserve">
<style type="text/css">
	.st0{fill:none;}
	.st1{fill:#FFFFFF;}
	.st2{fill:url(#SVGID_1_);}
	.st3{enable-background:new    ;}
	.st4{fill:#FF941E;}
</style>
<g>
	<path class="st0" d="M376.2,128.5v-0.1l0.1-0.2c3.9-8.3,8.4-16.9,13.4-25.4l0.8-1.3c-0.6-0.4-1.4-0.8-2.8-1c-0.2,0-0.4,0-0.6,0
		c-2,0-6.6,1-14.3,7.4c-6.6,5.5-13,13.1-18.6,21.8c-5.4,8.6-8.8,16.5-9.8,22.8c-0.4,3-0.2,4.8,0.1,5.8c0.1,0.2,0.4,0.6,1.2,1
		c0.3,0,1.4-0.3,3.6-1.6c3.5-2.3,7.2-5.6,11.4-10.2c4.2-4.5,8.8-10.1,14.1-17.1L376.2,128.5z"/>
	<path class="st0" d="M469.9,124.9c3.8-7.7,7.8-15,11.7-21.8c2.4-4.4,5.1-9,8.2-14.2H466c0.4,0.3,0.8,0.7,1.2,1.1
		c1.4,1.6,2,3.6,1.9,5.7V96l-0.1,0.4c-1.2,6-4.3,11.2-7.1,15.9c-0.5,0.9-1,1.8-1.5,2.6c-5.7,10.1-12.4,20.5-19,29.2l-0.2,0.2
		l-0.4,0.4l-0.1,0.2c-1.5,4-2.4,7-2.8,9.4c-0.4,2.8-0.1,3.9,0,4.3c0.1,0,0.2,0.1,0.5,0.1c0.1,0,0.2,0,0.4,0c1.4,0,4.9-1.1,12.1-8.5
		C457.1,143.8,463.8,134.8,469.9,124.9z"/>
	<path class="st1" d="M331.6,126.1c-0.4-2-1.6-3.7-3.4-4.8c-1.3-0.8-2.7-1.2-4.2-1.2c-2.6,0-5,1.3-6.5,3.6
		c-7.4,11.9-14.2,21.2-20,27.5c-6.1,6.4-9.3,7.7-10.5,7.9c0-0.9,0-2.5,0.7-4.8c0.7-2.7,1.5-5,2.5-7.4l0.9-2.1l2.7-3.6
		c6.2-8.8,12.6-18.9,18-28.4l5.8-10.5l2.9-6.1l0.1-0.2c0.8-2.4,0.4-4.9-1-6.9c-1.5-2.1-3.9-3.3-6.4-3.3c-1.5,0-2.9,0.4-4.1,1.2h-0.8
		l-1.2,1.7c-0.1,0.1-0.3,0.4-0.6,0.8c-11.6,16.1-18.7,28-22.7,35.2l-3.4,6.4l-2.8,5.8l-1.5,2.2c-5.8,7.5-10.4,12.5-14.5,15.7
		c-5.1,4.1-7.7,4.6-8.6,4.6c-0.4,0-0.6-0.1-0.8-0.2c-1.5-1.1-1-4.6-0.3-7.3c1.5-5.6,4.9-12.6,10.3-21.5l0.1-0.1
		c3.9-6.9,8.4-14,14.1-22.4c1.8-2.5,3.7-5.5,5.6-8.5c0.7-1.1,1.5-2.3,2.2-3.3c2.3-3.6,1.1-8.3-2.5-10.6c-1.2-0.8-2.6-1.2-4-1.2
		c-2.7,0-5.1,1.4-6.6,3.7l-0.1,0.1c-1.7,2.9-5,7.8-7.4,11.1c-3.8,5.6-9.5,14.1-15,23.4c-5.5,9.1-9.6,18.1-11.5,25.5
		c-2.9,10.2-0.4,19.4,6.6,24.1c2.8,1.8,5.9,2.8,9.3,2.8c1.8,0,3.7-0.3,5.7-0.8c4-1.2,8-3.5,12.6-7.3c0.5-0.4,0.9-0.8,1.4-1.2
		c1.5,3.8,4.3,6.6,8.1,8.1c1.8,0.7,3.7,1,5.7,1c8.8,0,16.5-7,22.1-13c6.5-6.7,13.6-16.5,21.9-29.7
		C331.7,130.1,332,128.1,331.6,126.1z"/>
	<path class="st1" d="M422,121.1c-1.2-0.8-2.6-1.2-4-1.2c-2.7,0-5.1,1.4-6.6,3.7c-7.7,12.3-14.5,21.7-20.3,27.9
		c-4.6,5-7.4,6.8-8.9,7.5c0.1-1.7,0.6-5.4,2.9-11.5c0.3-0.8,0.7-1.7,1-2.5c0.7-1.8,1.5-3.7,2.4-5.7l1.3-3.1l1.5-2.1
		c3.2-4.4,7.3-10.3,11.3-16.3c8.7-13.1,17.9-28.1,25.9-42l8.3-14.9c1.7-3.2,3-5.7,3.7-7.3l0.3-0.3l0.3-0.9c0.8-2.4,0.5-5-1-7.1
		c-1.4-2-3.8-3.3-6.2-3.3c-1.2,0-2.4,0.3-3.5,0.9c-1,0.4-1.7,1-2.1,1.5c-2.1,1.7-5.1,6.2-11.1,14.9c-1.2,1.8-2.5,3.6-3.8,5.6
		c-5.6,8.5-10.1,15.6-14.3,22.5l-0.4,0.7c-2.5-1.5-5.4-2.5-8.7-3h-0.1c-0.8-0.1-1.6-0.1-2.5-0.1c-16.7,0-34.6,18.9-45.8,36.5
		c-6.5,10.2-10.8,20.3-12.1,28.6c-0.8,5.3-0.5,9.8,1,13.7c1.8,5,5.5,8.5,10.7,10.1c1.5,0.5,3.1,0.8,4.8,0.8
		c7.3,0,14.6-5.2,21.2-11.5c0.6,3.6,2.2,7.4,6.6,9.9c2.2,1.2,4.6,1.9,7.1,1.9c2.9,0,6-0.9,9.2-2.6c3.9-2.1,8.1-5.6,12.4-10.2
		c8.4-9.1,16.6-21.5,22-30.3C426.6,128.1,425.6,123.4,422,121.1z M349.5,157.6c-2.1,1.4-3.3,1.6-3.6,1.6c-0.8-0.3-1.1-0.7-1.2-1
		c-0.3-1-0.6-2.8-0.1-5.8c1-6.3,4.4-14.2,9.8-22.8c5.6-8.7,12-16.3,18.6-21.8c7.7-6.5,12.2-7.4,14.3-7.4c0.2,0,0.4,0,0.6,0
		c1.4,0.2,2.2,0.6,2.8,1l-0.8,1.3c-5,8.6-9.5,17.1-13.4,25.4l-0.1,0.2v0.1l-1.2,1.7c-5.3,7-9.9,12.6-14.1,17.1
		C356.7,151.9,353,155.3,349.5,157.6z"/>
	<path class="st1" d="M530.9,42.7c-1.5-1.7-3.8-2.7-6-2.7c-2.8,0-5.3,1.5-6.6,4.1c-0.2,0.3-0.7,1-1.3,2c-3,4.5-9.8,14.7-17.7,27.3
		h-16.5c0.5-0.5,1-1.1,1.4-1.7l0.1-0.1l2.9-5.3c1.1-1.8,1.3-3.9,0.7-6c-0.6-1.9-1.8-3.5-3.5-4.5c-1.2-0.7-2.5-1.1-3.9-1.1
		c-2.6,0-5.1,1.4-6.6,3.8l-0.1,0.1l-2.9,5.3c-1.9,3.1-1.2,7.1,1.5,9.5h-14.9c-4.2,0-7.7,3.5-7.7,7.8c0,3.9,3,7.2,6.8,7.6
		c-0.7,0.6-1.3,1.2-1.8,2.1c-0.1,0.2-0.7,0.9-1.2,1.6c-1.3,1.7-3.5,4.6-6.4,9c-0.8,1.3-1.7,2.6-2.5,4c-3.8,6-8.2,12.8-12,20.2
		c-5.8,11-9,19.3-10,26.1c-0.9,5.1-0.5,9.5,1.1,13l0.1,0.1c2.3,4.6,6.1,7.6,11.2,8.8c1.2,0.3,2.5,0.4,3.7,0.4
		c6.6,0,13.4-3.5,20.6-10.7c1.3,5.7,4.8,9.4,10.1,10.7h0.1c1.2,0.3,2.4,0.4,3.7,0.4l0,0c9.4,0,17.9-7.5,23.4-13.2
		c8.5-8.9,16.4-21,21.6-29.3c1.1-1.8,1.5-3.9,0.9-6c-0.5-1.9-1.7-3.6-3.4-4.7c-1.3-0.8-2.7-1.2-4.1-1.2c-2.6,0-4.9,1.3-6.4,3.6
		c-7.4,11.8-14,20.8-19.8,26.9c-5.9,6.2-9.5,7.8-11.2,8.2c0-1.6,0.4-4.6,2.2-10.1c1.5-4.1,3-8.1,5.3-12.9l1.3-2.8l3.6-5.3
		c8.4-12,17.4-25.9,25.4-39.3h11.5c4.2,0,7.8-3.5,7.8-7.7c0-4.3-3.5-7.8-7.8-7.8h-2.4c2.2-4,4.1-7.6,5.8-10.8l0.1-0.1l0.1-0.1
		c0.5-1.1,1-2.2,1.6-3.4c1.5-3.1,2.8-6,3.5-8.5l0.3-0.3l0.2-1.4C533,46.6,532.3,44.4,530.9,42.7z M438.5,158.8
		c-0.2-0.1-0.4-0.1-0.5-0.1c-0.2-0.4-0.5-1.5,0-4.3c0.4-2.4,1.3-5.4,2.8-9.4l0.1-0.2l0.4-0.4l0.2-0.2c6.6-8.7,13.3-19.1,19-29.2
		c0.5-0.9,1-1.7,1.5-2.6c2.8-4.6,5.9-9.9,7.1-15.9l0.1-0.4v-0.3c0.2-2.1-0.5-4.1-1.9-5.7c-0.4-0.4-0.8-0.8-1.2-1.1h23.8
		c-3.1,5.2-5.8,9.8-8.2,14.2c-3.9,6.8-8,14.1-11.7,21.8c-6.1,9.8-12.8,18.9-18.9,25.4c-7.2,7.4-10.7,8.5-12.1,8.5
		C438.7,158.8,438.6,158.8,438.5,158.8z"/>
</g>
<path class="st1" d="M114,3.8L3.5,84.8l43,130.1l137-0.8l40.8-127.6l0.9-2.9L114,3.8z M114.1,64.1l56.8,40.8l-21.2,66.6l-70,0.4
	l-22-66.4L114.1,64.1z M17.2,85.3l92.4-67.8l0.2,42.5l-54.5,40L17.2,85.3z M52.5,108.1l21.3,64.4l-22.7,29.2l-35.7-108L52.5,108.1z
	 M80.7,177.6l68-0.4l22.7,28.4l-113.2,0.6L80.7,177.6z M155.6,172.1l20.6-64.7l37.2-14.8L178.8,201L155.6,172.1z M173.2,99.4
	L118.4,60l-0.2-42.6l93,66.8L173.2,99.4z"/>
<linearGradient id="SVGID_1_" gradientUnits="userSpaceOnUse" x1="23.3" y1="-568.45" x2="204.5" y2="-568.45" gradientTransform="matrix(1 0 0 -1 0 -454)">
	<stop  offset="0" style="stop-color:#2BC8EB"/>
	<stop  offset="1" style="stop-color:#1588E0"/>
</linearGradient>
<path class="st2" d="M204.5,104.1V89.7h-11.7L121,34.1V23.8h-14.4v10l-70,53H23.3v14.4h6.6l16.2,77.3h-1.2V193h14.4v-2.4l86.4,8.6
	v5.9h14.4v-14.4h-1.8l37.6-86.6L204.5,104.1L204.5,104.1z M153.9,190.7h-8.1v4.5l-86.4-8.6v-7.9h-9l-16.2-77.3h3.6v-10l70-53h12
	l70.4,54.7v11.2h1.4L153.9,190.7z"/>
<g class="st3">
	<path class="st4" d="M169.3,161.3c0,0.9-0.7,1.6-2.1,2.1c-1.4,0-2.4,0.2-2.8,0.7c-0.5,0.9-0.2,1.6,0.7,2.1c0.9,0.5,1.4,1.2,1.4,2.1
		c-0.5,0.9-1.4,1.6-2.8,2.1c-9.4,2.4-15.5,3.5-18.3,3.5c-6.6-0.5-11.2-3.7-14.1-9.8c-2.8-7-5.6-15.7-8.4-26
		c-0.9,0.9-1.9,1.9-2.8,2.8l-0.7,0.7c-2.8,2.4-6.6,3.5-11.2,3.5c-4.2,0-12.4,0-24.6,0c-1.4,2.4-3.3,5.6-5.6,9.8
		c-3.3,6.1-5.2,9.4-5.6,9.8c-2.8,4.2-7,6.8-12.7,7.7c-0.5,0-0.9,0-1.4,0c-5.2,0-10.1-0.2-14.8-0.7c-1.9,0-3.1-0.7-3.5-2.1
		c0-1.9,0.9-3.5,2.8-4.9c6.6-4.2,10.8-8,12.7-11.2c0-0.5,0.5-1.2,1.4-2.1c1.4-2.3,2.6-4.4,3.5-6.3c-4.7,0-7.5,0-8.4,0
		c-3.3-0.5-4.2-2.6-2.8-6.3c2.8-5.6,5.2-9.4,7-11.2c2.3-3.3,5.4-4.9,9.1-4.9c1.4,0,4,0,7.7,0c3.3-5.6,8.2-14.5,14.8-26.7
		c8.4-15.9,13.6-25.8,15.5-29.5c0-0.5-0.5-0.7-1.4-0.7c-0.5-0.5-0.9-0.7-1.4-0.7c-3.8-1.9-4-4.2-0.7-7c5.6-2.8,11.7-4.7,18.3-5.6
		c8.9-0.9,14.8,2.8,17.6,11.2c2.8,9.4,6.1,21.3,9.8,35.9c0-1.4,0.5,0,1.4,4.2c5.2,19.2,9.8,34.5,14.1,45.7c0.9,2.4,3,5.2,6.3,8.4
		l0.7,0.7C169.3,159,169.8,159.9,169.3,161.3z M95.5,122.7c9.8,0,17.8,0,23.9,0c-0.5-1.4-1.2-4-2.1-7.7c-0.5-2.8-0.9-4.9-1.4-6.3
		c-0.5-1.9-1.2-4.9-2.1-9.1c-0.9-3.7-1.6-6.6-2.1-8.4C108.4,97.1,103,107.7,95.5,122.7z"/>
</g>
</svg>
