<?xml version="1.0" encoding="utf-8"?>
<!-- Generator: Adobe Illustrator 21.0.0, SVG Export Plug-In . SVG Version: 6.00 Build 0)  -->
<svg version="1.1" id="图层_1" xmlns="http://www.w3.org/2000/svg" xmlns:xlink="http://www.w3.org/1999/xlink" x="0px" y="0px"
	 viewBox="0 0 222 222" style="enable-background:new 0 0 222 222;" xml:space="preserve">
<style type="text/css">
	.st0{fill:#E1E1E1;}
	.st1{fill:url(#SVGID_1_);}
	.st2{fill:#FF941E;}
</style>
<path class="st0" d="M110.9,6.8L2.2,86.6l42.3,128.1l134.9-0.8l40.7-127.5l0.3-1L110.9,6.8z M170.8,103.6l-58.3-41.8l-0.2-50.5
	l103.5,74.4L170.8,103.6z M147.3,173.6L76,174l-22.3-67.7l57.4-42.2l57.8,41.5L147.3,173.6z M109.7,61.7l-57.9,42.5L6.7,86.7
	l102.8-75.5L109.7,61.7z M50.9,106.9l22.5,68.3L46,210.3L6.1,89.5L50.9,106.9z M75.7,176.8l72-0.4l27.8,34.7l-127.1,0.7L75.7,176.8z
	 M149.9,174.7l21.8-68.5l44.8-17.8l-38.7,121.2L149.9,174.7z"/>
<linearGradient id="SVGID_1_" gradientUnits="userSpaceOnUse" x1="22.1931" y1="108.7713" x2="199.9818" y2="108.7713" gradientTransform="matrix(1 0 0 -1 0 224)">
	<stop  offset="0" style="stop-color:#2BC8EB"/>
	<stop  offset="1" style="stop-color:#1588E0"/>
</linearGradient>
<path class="st1" d="M200,105V90.9h-11.5L118,36.3v-10h-14.1v9.9l-68.7,52h-13v14.1h6.5l15.9,75.9h-1.2v14.1h14.1V190l84.8,8.5v5.8
	h14.1v-14.1h-1.8l36.9-85H200z M150.3,190.1h-7.9v4.4L57.5,186v-7.7h-8.8l-15.9-75.9h3.5v-9.9l68.7-52h11.8l69.1,53.7v11h1.4
	L150.3,190.1z"/>
<path class="st2" d="M141.2,123.6c-1.3-0.6-2.8-0.7-4.2-0.5c-2.6,0.5-4.8,2.2-5.9,4.8l0,0.1c-3.1,7.8-6.4,14.4-9.5,19.1
	c-0.3,0.4-0.6,0.9-0.9,1.2c0.3-1.8,0.8-3.9,1.4-6.2c1.4-5.6,4-12.5,6.7-19.8l0.6,0c0.7,0.1,1.5,0.1,2.2-0.1c3.3-0.6,5.9-3.2,6.3-6.6
	c0.5-3.2-1.1-6.2-3.8-7.8c3.4-9.3,6.2-18.2,7.1-25.8c0.9-6.3-0.7-12-4.3-15.5c-2.8-2.7-6.6-3.8-10.7-3.1c-2,0.4-4.1,1.2-6.2,2.4
	c-4.2,2.5-7.4,6.7-9.9,10.5c-5.4,8.1-12,20.2-17.6,32l-2,4.2c-0.5,0.1-0.9,0.1-1.4,0.2c-3.9,0.4-6.5,0.4-8.7-0.3l-0.1,0l-0.1,0
	c-1.1-0.3-2.2-0.3-3.3-0.1c-2.8,0.5-5,2.4-6.1,5.1l-0.1,0.3l-0.1,0.3c-1,3.9,1.1,7.9,5,9.4l0.2,0.1l0.2,0.1c2.1,0.6,4.3,0.9,6.7,1.1
	c-7.4,13.9-17.2,29.4-27.8,33.9c-3.9,1.6-5.8,5.5-4.7,9.3c1.1,3.9,5,6.3,9,5.6c0,0,0,0,0,0c0.4-0.1,0.8-0.2,1.2-0.3
	c17.8-5.9,30.4-28.9,40.8-50.6c1.2-0.3,2.5-0.6,3.9-1l0,0c2.2-0.5,4.4-1.1,6.5-1.5c-1.8,5.1-3.3,9.9-4.5,14.4
	c-1.9,7.4-2.7,12.5-2.5,16.6c0.1,3.3,0.8,6,2.3,8.2l0.1,0.1c2.1,2.9,5.2,4.7,8.8,5l0.2,0c1,0,2,0,3-0.2c7.1-1.2,12.3-7.7,15.5-12.4
	c3.7-5.3,7.2-12.4,11.1-22.1C147.1,129.8,145.2,125.2,141.2,123.6z M125.5,81.7c-1.4,7.2-4.5,16-7.9,25.4c-1.2,0.1-2.5,0.3-3.8,0.6
	c-1.4,0.2-2.8,0.5-4.1,0.8c4.9-9.8,9.4-17.9,13.1-23.3C123.8,83.7,124.7,82.6,125.5,81.7z"/>
</svg>
